<svg xmlns="http://www.w3.org/2000/svg" width="512" height="512" fill="none">
  <g clip-path="url(#clip0)">
    <path fill-rule="evenodd" clip-rule="evenodd" d="M262.614 1.242c62.835 36.423 120.709 52.98 191.811 57.946a14.483 14.483 0 018.54 5.307A14.517 14.517 0 01466 74.09v182.118c0 147.35-97.559 182.118-201.732 253.31-4.961 3.311-11.575 3.311-14.882 0C145.213 438.325 46 403.557 46 256.207V74.089c0-8.278 4.96-13.245 13.228-14.9 69.449-4.968 128.977-21.524 190.158-57.947 4.96-1.656 9.921-1.656 13.228 0z" fill="#9E1E22"/>
    <g clip-path="url(#clip1)">
      <path d="M422.854 119.921c0 2.275-2.278 4.482-7.732 6.896-7.455 2.758-11.321 4.275-11.666 4.482a35.299 35.299 0 00-12.288 20.688 197.206 197.206 0 00-10.079 27.585 58.525 58.525 0 01-5.316 16.344c-4.418 9.654-6.903 14.757-6.903 15.171v6.896a22.586 22.586 0 01-.483 2.621c-10.033 30.159-24.714 75.673-44.044 136.543-1.726 6.482-3.452 12.895-5.315 19.24-2.762 7.654-6.49 11.447-11.184 11.447a12.918 12.918 0 01-5.454-1.448 23.046 23.046 0 011.105-4.482 15.42 15.42 0 00.828-5.379 17.35 17.35 0 00-3.382-3.379 6.902 6.902 0 01-2.278-5.31c0-1.656 0-4-.484-6.897-1.932-4.344-4.487-11.171-7.593-20.688a332.123 332.123 0 01-.829-9.723 19.854 19.854 0 00-5.177-11.793c0-.965-.552-2.275-.967-3.999a17.787 17.787 0 001.105-6.138 19.646 19.646 0 00-4.211-10.689l-7.456-9.103c1.312-1.724 2.9-4.137 4.833-7.241a42.685 42.685 0 01-5.799-8.413c0-2.276 0-5.862-.691-10.827-1.449-2.62-3.658-6.551-6.42-11.999a9.992 9.992 0 010-6.138c.525-2.754.848-5.543.967-8.344a7.532 7.532 0 00-3.728-1.172 6.352 6.352 0 00-5.868 4.689c-2.002 7.448-5.108 18.344-9.181 32.688 0 .827-3.383 8.551-9.251 23.102a111.687 111.687 0 00-7.732 26.343c-1.656 3.862-3.796 9.93-6.489 18.274-2.14 9.793-3.935 17.241-5.315 22.275a104.291 104.291 0 01-8.906 22.481 12.014 12.014 0 01-11.045 0 79.529 79.529 0 01-5.454-19.033 140.593 140.593 0 00-3.935-18.275 31.014 31.014 0 00-7.593-13.24 35.274 35.274 0 00-.76-19.378 77.36 77.36 0 01-8.767-9.793c0-1.724 0-3.931-.483-6.896a4.14 4.14 0 00-.345-1.793c-2.071-4-4.626-10.068-7.801-18.275a21.706 21.706 0 000-7.447l3.037-2.897a66.68 66.68 0 0013.807 8.551 11.58 11.58 0 00-3.521-9.654 23.176 23.176 0 01-5.384-8.758c-15.003-7.54-22.482-15.723-22.436-24.55a16.25 16.25 0 011.243-6.138 94.862 94.862 0 01-7.249-13.102c-.966-4.966-2.83-12.138-5.523-21.654a66.8 66.8 0 01-6.765-9.931c.396-4.448.558-8.913.483-13.378a394.504 394.504 0 01-7.593-13.103c-1.726-3.793-3.521-7.516-5.316-11.171a28.418 28.418 0 00-8.284-10 54.51 54.51 0 00-18.087-5.172s-.552-1.034-2.623-3.034a19.449 19.449 0 012.761-3.724c9.832-.498 19.688.034 29.409 1.586a32.697 32.697 0 0010.216-.827l7.939-1.242h37.209a9.17 9.17 0 003.866-1.793 9.956 9.956 0 013.866-1.793c.499.962.782 2.021.829 3.104 0 2.344-3.038 5.034-9.044 8.068s-9.112 6.896-9.25 11.103a44.723 44.723 0 006.351 22.826 16.464 16.464 0 011.311 7.724c-.044 3.097.21 6.192.76 9.24a395.38 395.38 0 0014.911 38.618c0 2.828.483 6.897.828 12.138.76 1.172 1.726 2.827 2.9 4.827a29.481 29.481 0 003.728 13.792 110.834 110.834 0 015.937 12.62 1606.609 1606.609 0 004.694 19.585 93.436 93.436 0 007.663 19.861 5.738 5.738 0 003.729-1.22 5.722 5.722 0 002.069-3.332 478.542 478.542 0 0012.91-47.031 24.774 24.774 0 004.073-6 203.538 203.538 0 015.66-21.929 59.65 59.65 0 006.282-20.689 20.122 20.122 0 00-1.104-6.896l-20.71-59.168a50.314 50.314 0 00-11.943-7.31 23.001 23.001 0 01-9.251-5.862c3.107-.552 7.87-1.448 14.221-2.758 0 2.482.415 3.999 1.174 4.482a44.91 44.91 0 009.043 1.103c5.28-.222 10.538-.798 15.74-1.724 9.25-1.31 14.98-2.068 17.258-2.275 5.505-.144 11.013.017 16.499.482a37.18 37.18 0 0016.499-2.068c.587 1.255.916 2.615.967 3.999 0 2.069-2.14 3.586-6.489 4.552a23.268 23.268 0 00-12.081 5.655 11.296 11.296 0 00-2.278 8.068c.231 3.84.926 7.637 2.071 11.31 1.726 6.896 2.761 10.827 3.106 12.757a69.662 69.662 0 00-.345 14.413 107.938 107.938 0 018.905 12.137c.622 4.621 1.657 11.103 3.107 19.378 0 0 1.864 6.069 5.316 17.792a67.002 67.002 0 013.382 17.585v3.242a39.279 39.279 0 016.213 7.31c0 1.93 1.243 8.62 3.176 19.998a142.555 142.555 0 012.278 21.033 36.816 36.816 0 002.899 3.242 23.905 23.905 0 006.213-4.552c2.693-5.793 6.904-15.102 12.081-27.584 1.45-8.965 3.659-21.378 6.903-37.308a39.33 39.33 0 017.87-10.069 77.39 77.39 0 018.422-32.687c.33-3.658.977-7.281 1.933-10.827a27.531 27.531 0 004.004-5.586 219.383 219.383 0 016.351-24.619 13.778 13.778 0 00-2.278-16.137 21.345 21.345 0 00-9.25-3.931 70.814 70.814 0 01-11.322-3.586c2.14-3.792 8.215-5.034 17.604-3.999.83.197 1.639.474 2.416.827 1.138.485 2.354.766 3.59.828a24.695 24.695 0 005.246-1.31 35.925 35.925 0 017.801-1.656 35.285 35.285 0 017.318.759c2.273.483 4.582.783 6.903.897a136.436 136.436 0 0022.712-1.931zM163.15 256.532l-4.349 2.897-.691-1.793 4.211-2.966.829 1.862z" fill="#fff"/>
    </g>
  </g>
  <defs>
    <clipPath id="clip0">
      <path fill="#fff" d="M46 0h420v512H46z"/>
    </clipPath>
    <clipPath id="clip1">
      <path fill="#fff" d="M89.077 118.61h333.846v269.569H89.077z"/>
    </clipPath>
  </defs>
</svg>
